<?xml version="1.0" encoding="UTF-8" standalone="no"?>
<svg
   xmlns:dc="http://purl.org/dc/elements/1.1/"
   xmlns:cc="http://creativecommons.org/ns#"
   xmlns:rdf="http://www.w3.org/1999/02/22-rdf-syntax-ns#"
   xmlns:svg="http://www.w3.org/2000/svg"
   xmlns="http://www.w3.org/2000/svg"
   xmlns:sodipodi="http://sodipodi.sourceforge.net/DTD/sodipodi-0.dtd"
   xmlns:inkscape="http://www.inkscape.org/namespaces/inkscape"
   inkscape:version="1.0 (4035a4f, 2020-05-01)"
   sodipodi:docname="haskell-load-changes.svg"
   id="svg22"
   version="1.1"
   viewBox="0 0 4.2333331 4.2333334"
   height="16"
   width="16">
  <metadata
     id="metadata28">
    <rdf:RDF>
      <cc:Work
         rdf:about="">
        <dc:format>image/svg+xml</dc:format>
        <dc:type
           rdf:resource="http://purl.org/dc/dcmitype/StillImage" />
        <dc:title></dc:title>
      </cc:Work>
    </rdf:RDF>
  </metadata>
  <defs
     id="defs26" />
  <sodipodi:namedview
     showguides="false"
     units="px"
     inkscape:current-layer="svg22"
     inkscape:window-maximized="0"
     inkscape:window-y="23"
     inkscape:window-x="0"
     inkscape:cy="13.009572"
     inkscape:cx="0.078826455"
     inkscape:zoom="15.08138"
     showgrid="false"
     id="namedview24"
     inkscape:window-height="773"
     inkscape:window-width="1200"
     inkscape:pageshadow="2"
     inkscape:pageopacity="0"
     guidetolerance="10"
     gridtolerance="10"
     objecttolerance="10"
     borderopacity="1"
     bordercolor="#666666"
     pagecolor="#ffffff" />
  <g
     transform="matrix(0.01939805,0,0,0.01939805,0.00782084,0.03091651)"
     id="g16"
     style="fill:#666666">
    <path
       id="path10"
       d="M 0,120 40,60 0,0 h 30 l 40,60 -40,60" />
    <path
       id="path12"
       d="M 136.66667,85 123.33333,65 H 170 v 20" />
    <path
       id="path14"
       d="M 116.66667,55 103.33333,35 H 170 v 20" />
  </g>
  <g
     transform="matrix(0.01939805,0,0,0.01939805,0.00782084,0.03091651)"
     id="g20"
     style="fill:#999999">
    <path
       id="path18"
       d="M 40,120 80,60 40,0 h 30 l 80,120 H 120 L 95,82.5 70,120" />
  </g>
  <path
     style="stroke-width:0.244833"
     fill="#389fd6"
     d="M 4.0462853,3.2379025 V 4.1123636 L 3.738178,3.8040306 C 3.5461397,4.0000074 3.2740757,4.1157086 2.9785255,4.1002198 2.4906416,4.0746567 2.1037499,3.7002081 2.0469327,3.2313 l 0.3332407,0.028974 c 0.065607,0.2831985 0.3120014,0.5007911 0.6167865,0.5167643 0.199876,0.010525 0.3838459,-0.067902 0.5135536,-0.2005911 L 3.1718052,3.2379063 Z M 3.0822213,2.1217058 c 0.481398,0.025221 0.8644678,0.3901175 0.9291505,0.8502699 L 3.6802145,2.9431284 C 3.6097002,2.6670891 3.3665102,2.456676 3.066981,2.440978 2.8583139,2.4300731 2.6669679,2.5159557 2.5366134,2.6594176 L 2.8875823,3.0103801 H 2.0131021 V 2.135919 L 2.3089947,2.4320169 C 2.501672,2.2274975 2.7796399,2.1058467 3.0822213,2.1217058 Z"
     id="path30" />
</svg>
